<svg xmlns="http://www.w3.org/2000/svg" viewBox="0 0 64 64">
  <g transform="translate(0.198 0.198)">
    <path class="a"
          d="M63.8,59.986,52.321,48.5a29.7,29.7,0,1,0-3.816,3.816L59.988,63.8ZM5.262,29.533A24.271,24.271,0,1,1,29.533,53.8,24.271,24.271,0,0,1,5.262,29.533Z"
          transform="translate(0 0)"/>
    <path class="a"
          d="M67.251,55.566a2.734,2.734,0,0,0-2.445-1.511h-.784a18.942,18.942,0,0,0,.59-2.734h5.661V45.853H64.612a18.941,18.941,0,0,0-.59-2.734h.784a2.734,2.734,0,0,0,2.445-1.511l2.734-5.468L65.094,33.7l-1.978,3.956h-1.8a14.916,14.916,0,0,0-2.49-2.619,8.2,8.2,0,1,0-15.375,0,14.924,14.924,0,0,0-2.489,2.619h-1.8L37.179,33.7l-4.89,2.445,2.734,5.468a2.734,2.734,0,0,0,2.445,1.511h.784a18.942,18.942,0,0,0-.59,2.734H32v5.468h5.661a18.942,18.942,0,0,0,.59,2.734h-.784a2.734,2.734,0,0,0-2.445,1.511l-2.734,5.468,4.89,2.445,1.978-3.956h1.8A12.778,12.778,0,0,0,51.137,64.99a12.778,12.778,0,0,0,10.177-5.468h1.8l1.978,3.956,4.89-2.445ZM48.4,32.184a2.734,2.734,0,0,1,5.468,0,2.768,2.768,0,0,1-.025.325,11.461,11.461,0,0,0-5.417,0A2.766,2.766,0,0,1,48.4,32.184Zm2.734,27.338c-4.522,0-8.2-4.905-8.2-10.935s3.679-10.935,8.2-10.935,8.2,4.905,8.2,10.935S55.659,59.522,51.137,59.522Z"
          transform="translate(-21.558 -15.912)"/>
  </g>
</svg>
